<svg xmlns="http://www.w3.org/2000/svg" width="255.618" height="256" viewBox="0 0 255.618 256"><defs><style>.a{fill:#373737;}.a,.b{fill-rule:evenodd;}.b{fill:#ef1016;}</style></defs><g transform="translate(-1232.602 -129.408)"><path class="a" d="M1269.771,294.707l-15.445,26.875a2.508,2.508,0,0,0,.732,2.732l47.631,27.5,16.983-28.164-35.1-20.359L1282.3,310.3l9.3,6.537-7.7,17.711-1.4-15.153-8.653-6.068,1.538-15.359-5.618-3.258Zm153.448,90.7a4,4,0,0,1,0-8h2.729l-38.365-15.432c-7,5.448-13.874,10.407-20.934,15.432h5.57a4,4,0,0,1,0,8h-60a4,4,0,0,1,0-8h.492c-24.8-11.82-48.9-25.066-71.266-41.135a21.02,21.02,0,0,1-7.107-25.507,272.468,272.468,0,0,1,13.23-27.176c2.441-4.367,4.98-8.739,7.5-13.11l5,2.885a3.855,3.855,0,0,0,5.253-1.408l1.923-3.33a3.855,3.855,0,0,0-1.407-5.254l-5-2.883,14.422-24.978-.833-.481c-8.814-5.09-1.122-18.41,7.691-13.322l1.043.6a7.717,7.717,0,0,1,9.334-1.271l.834.481a38.457,38.457,0,0,0,62.475,44.29l6.628,14.247L1356.115,290l7.6,21.41,1.5-18,8.33-5.285-2.039-21.465,38.382,22.16a38.456,38.456,0,1,0,66.608,38.455l.833.481a7.714,7.714,0,0,1,3.564,8.721l1.044.6c8.813,5.09,1.122,18.41-7.691,13.322l-.832-.48-10.137,17.709c-7.7-4.445-8.549-3.926-11.2-.137l11.27,10.906a4,4,0,0,1-2.632,7.012Zm-80.542-22.31,8.483-13.264-10.361,4.535-9.4-2.1-12.845,8.156-6.1-3.522L1328.8,328.59l44.492,25.687c-7.493,5.889-15.08,11.551-22.718,17.131h-12.99l-8.857-5.113,4.1-5.361,9.851,2.164Zm-30.465-97.372a28.842,28.842,0,1,1,39.4-10.556,28.843,28.843,0,0,1-39.4,10.556Zm8.652-14.986a11.538,11.538,0,1,1,15.76-4.224,11.539,11.539,0,0,1-15.76,4.224Zm107.911,82.283a28.842,28.842,0,1,1,39.4-10.556,28.841,28.841,0,0,1-39.4,10.556Zm8.653-14.986a11.537,11.537,0,1,1,15.759-4.223,11.537,11.537,0,0,1-15.759,4.223Z"/><path class="b" d="M1440.648,129.408a19.986,19.986,0,0,1,18.861,13.381,10.545,10.545,0,0,1,9.127,6.727,17.85,17.85,0,0,1,1.959-.108,17.624,17.624,0,0,1,.487,35.242,13.585,13.585,0,0,1-11.9,13.123,19.985,19.985,0,0,1-27.22,25.379c.026.412.041.83.041,1.25a19.291,19.291,0,1,1-36.677-8.365,10.549,10.549,0,0,1-5.116-13.576,17.923,17.923,0,0,1,10.5-32.445c.252,0,.5,0,.75.015-.03-.377-.044-.76-.044-1.144a14.82,14.82,0,0,1,20.059-13.86,19.993,19.993,0,0,1,19.168-25.619Zm-51.929,16.5a9,9,0,1,1-9,9,9,9,0,0,1,9-9Zm10.5,100.5a9,9,0,1,1-9,9,9,9,0,0,1,9-9Z"/></g></svg>