<svg xmlns="http://www.w3.org/2000/svg" width="222" height="214" viewBox="0 0 222 214"><defs><style>.a{fill:#ef1016;}.b{fill:#373737;fill-rule:evenodd;}</style></defs><g transform="translate(-1232.411 -651.919)"><path class="a" d="M1345.024,746.58a5.212,5.212,0,0,1-10.424,0V677.09a5.212,5.212,0,0,1,9.744-2.575l18.368,26.328,41.671-47.173a5.193,5.193,0,0,1,8.865,4.923l.011,0-18.149,60.762,33.587,2.919a5.211,5.211,0,0,1,1.867,9.861l-57.1,32.01a5.2,5.2,0,1,1-5.089-9.08l42.584-23.873-23.114-2.01v-.005a5.208,5.208,0,0,1-4.541-6.672l13.22-44.258-30.4,34.418h0a5.192,5.192,0,0,1-8.143-.468l-12.956-18.569V746.58Z" transform="translate(-13.69)"/><path class="b" d="M1232.411,761.057c22.7-.969,48.012.158,64.021,3.239,8.627,1.659,14.936,3.882,17.038,13.915,1.267,6.047,2.193,17.876,2.856,27.739h-8.034a3.474,3.474,0,0,0,0,6.949h8.455c.053.984.1,10.653.153,11.635l-8.681,4.689,9.24,9.068-5.6,4.768-5.037,12.8a29.483,29.483,0,0,0-58.8,3.17,30.9,30.9,0,0,0,.2,3.534h-15.814V800.7c10.3-.411,20.591-.823,30.659-1.24l-3.941-27.757a3.592,3.592,0,0,1-.036-.449c-8.826-.249-17.973-.19-26.682.189V761.057ZM1339.3,807.719c15.456-5.392,37.874-8.442,45.034-9.657,10.547-10.682,38.68-31.264,54.334-32.389q7.947-.573,15.746-.867v10.406q-7.391.3-15.014.842c-4.98.36-12.43,3.831-20.108,8.408a162.215,162.215,0,0,0-13.489,9.042c-3.027,2.238-2.21,6.72,2.2,6.45,14.634-.9,30.563-1.319,46.411-1.442v67.442c-20.459,0-40.777.007-61.387.014a28.618,28.618,0,1,0-55.538.01H1334.9a37.073,37.073,0,0,1-8.686-.843l-1.74-12.666,8.741-8.378-4.031-11.718,14.458-10.8-4.347-13.854Zm25.957,29.594a21.716,21.716,0,1,1-21.68,21.717,21.7,21.7,0,0,1,21.68-21.717Zm6.746,14.96a9.568,9.568,0,1,0,2.793,6.757,9.5,9.5,0,0,0-2.793-6.757Zm-94.492-14.96a21.717,21.717,0,1,1-21.68,21.717,21.7,21.7,0,0,1,21.68-21.717Zm6.745,14.96a9.567,9.567,0,1,0,2.794,6.757,9.5,9.5,0,0,0-2.794-6.757Zm-18.145-80.752,3.925,27.647c6.465-.271,12.822-.549,19.005-.829,8.275-.373,15.568-4.874,14.893-13.155-.212-2.6-.791-7.487-2.728-8.72-1.359-.865-3.738-1.374-6.721-1.947a212.086,212.086,0,0,0-28.374-2.995Z" transform="translate(0 -14.827)"/></g></svg>