<svg xmlns="http://www.w3.org/2000/svg" width="256" height="146.434" viewBox="0 0 256 146.434"><defs><style>.a{fill:#ef1016;}.b{fill:#373737;fill-rule:evenodd;}.c{fill:#fff;}</style></defs><g transform="translate(-1248 -467.283)"><rect class="a" width="106" height="22" rx="5" transform="translate(1373 467.283)"/><rect class="a" width="34" height="34" rx="4" transform="matrix(0.951, 0.309, -0.309, 0.951, 1447.767, 507.87)"/><path class="b" d="M2671.429,694.253c-12.178-.777-24.375-1.26-36.577-1.317l1.734,27.235c12.722.086,25.021.291,36.319.537,7.2.156,8.346-4,6.966-10.049a100.886,100.886,0,0,0-4.345-13.228c-1.026-2.5-2.234-3.057-4.1-3.178Zm-46.847,25.875-1.726-27.109c-9.371.169-18.925.593-28.778,1.3-5.742.412-14.334,4.408-23.188,9.678-5.355,3.187-10.69,6.8-15.555,10.412-3.49,2.576-2.551,7.736,2.538,7.424,20.947-1.287,44.2-1.715,66.709-1.707Zm-151,65.717h2.98a33,33,0,1,1,64.045-.012c28.237-.008,56-.018,84.123-.016a33,33,0,1,1,64.048.024l3.8,0c7.292.006,17,.5,17-10.362v-7.146a11.626,11.626,0,0,0-4.134-9.065l-1.865-1.617c0-7.021-.137-13.554-.611-19.81h-6.39c-2.2,0-3.466-1.866-4-4l-1-4c-.533-2.135,1.8-4,4-4h5.97a102.672,102.672,0,0,0-12.831-35.367c-2.532-4.407-6.066-7.465-11.138-7.823a583.51,583.51,0,0,0-84.343-.287c-18.054,1.3-50.494,24.99-62.657,37.287-12.619,2.139-66.355,9.213-69.675,23.3-.069.293-.133.59-.2.889h11.87c-1.1,4.4-3.964,8.5-9.246,9l-3.724.353a59.927,59.927,0,0,1-1.03,7.647c-3.1,1.367-5,3.789-5,7.232v5.139c0,11.326,11.231,12.629,20,12.629Zm35-33a25,25,0,1,1-25,25,25,25,0,0,1,25-25Zm7.779,17.22a11.005,11.005,0,1,0,3.22,7.78,10.967,10.967,0,0,0-3.22-7.78Zm140.394-17.22a25,25,0,1,1-25,25,25,25,0,0,1,25-25Zm7.779,17.22a11,11,0,1,0,3.222,7.78,10.963,10.963,0,0,0-3.222-7.78Z" transform="translate(-1205.577 -189.128)"/><g transform="translate(1355.005 549.268)"><path class="c" d="M39.312,3.649,14.578,28.382a1.167,1.167,0,0,1-1.657,0L.345,15.806a1.167,1.167,0,0,1,0-1.657l1.633-1.633a1.167,1.167,0,0,1,1.657,0l10.1,10.1L36.022.336a1.19,1.19,0,0,1,1.657,0l1.633,1.657a1.167,1.167,0,0,1,0,1.657Z"/></g></g></svg>