<svg xmlns="http://www.w3.org/2000/svg" width="18" height="18" viewBox="0 0 18 18"><path d="M7.5,15A7.5,7.5,0,1,1,15,7.5,7.508,7.508,0,0,1,7.5,15Zm0-13.5a6,6,0,1,0,6,6A6.007,6.007,0,0,0,7.5,1.5Zm.375,9h-.75a.376.376,0,0,1-.375-.375V8.25H4.875A.375.375,0,0,1,4.5,7.875v-.75a.375.375,0,0,1,.375-.375H6.75V4.875A.375.375,0,0,1,7.125,4.5h.75a.375.375,0,0,1,.375.375V6.75h1.875a.376.376,0,0,1,.375.375v.75a.375.375,0,0,1-.375.375H8.25v1.875A.375.375,0,0,1,7.875,10.5Z" transform="translate(1.5 1.5)"/></svg>