<svg xmlns="http://www.w3.org/2000/svg" width="18" height="18" viewBox="0 0 18 18"><defs><style>.a{fill:#ef1016;}</style></defs><path class="a" d="M6.953,13.5H6.547a1.112,1.112,0,0,1-.63-.2L.165,9.368A.367.367,0,0,1,0,9.06V8.94a.367.367,0,0,1,.165-.307L1.748,7.545l1.3.907L2.25,9,6.7,12h.165L11.25,9l-.826-.547,1.328-.907,1.583,1.087a.367.367,0,0,1,.165.307v.12a.367.367,0,0,1-.165.308L7.582,13.3A1.112,1.112,0,0,1,6.953,13.5Zm0-4.5H6.547a1.112,1.112,0,0,1-.63-.2L.165,4.867A.367.367,0,0,1,0,4.56V4.44a.367.367,0,0,1,.165-.308L5.918.2a1.112,1.112,0,0,1,.63-.2h.405a1.112,1.112,0,0,1,.63.2l5.753,3.937a.367.367,0,0,1,.165.308v.12a.367.367,0,0,1-.165.307L7.582,8.8A1.112,1.112,0,0,1,6.953,9Z" transform="translate(2.25 2.25)"/></svg>