<svg xmlns="http://www.w3.org/2000/svg" width="80" height="80" viewBox="0 0 80 80"><defs><style>.a{fill:#fff;}</style></defs><path class="a" d="M38.341,66.682h-.864a3.337,3.337,0,0,1-1.5-.366L27.427,62.05a1.614,1.614,0,0,0-1.464,0L17.41,66.316a3.337,3.337,0,0,1-1.5.366h-.864a1.668,1.668,0,0,1-1.665-1.668V47.95a8.283,8.283,0,0,1-7.32-5,7.794,7.794,0,0,1-.633-2.934V38.848a7.73,7.73,0,0,0-.633-2.9,7.7,7.7,0,0,0-1.629-2.5l-.834-.933a8.045,8.045,0,0,1-1.629-2.5,8.322,8.322,0,0,1,1.6-9.1l.867-.9a8.333,8.333,0,0,0,2.295-5.433V13.348a8.293,8.293,0,0,1,7.92-7.965H14.65a8.147,8.147,0,0,0,5.391-2.268l1.1-.867a8.241,8.241,0,0,1,11.313,0l.9.867a8.3,8.3,0,0,0,5.424,2.3h1.23a8.2,8.2,0,0,1,7.32,5,7.819,7.819,0,0,1,.633,2.934v1.266a8.119,8.119,0,0,0,.633,2.934,7.912,7.912,0,0,0,1.629,2.466l.834,1a8.045,8.045,0,0,1,1.629,2.5,8.351,8.351,0,0,1-1.6,8.934l-.867.9a8.333,8.333,0,0,0-2.295,5.433v1.233a8.3,8.3,0,0,1-7.92,7.935V65.014A1.668,1.668,0,0,1,38.341,66.682Zm-11.646-20h0c.05,0,.1.007.15.007a1.6,1.6,0,0,0,.981-.34l.966-.9a14.564,14.564,0,0,1,9.75-4h1.165a1.6,1.6,0,0,0,1.6-1.533V38.683a15.162,15.162,0,0,1,4.059-10l.9-.933a1.527,1.527,0,0,0,.267-1.8,1.919,1.919,0,0,0-.3-.5l-.9-.969a14.076,14.076,0,0,1-2.9-4.467,14.421,14.421,0,0,1-1.131-5.2V13.681a1.252,1.252,0,0,0,0-.666,1.487,1.487,0,0,0-1.4-.966H38.674a15.1,15.1,0,0,1-9.981-4.068l-.933-.9a1.5,1.5,0,0,0-1.02-.4H26.7a1.6,1.6,0,0,0-1.1.432l-.966.9a14.77,14.77,0,0,1-9.783,4.068H13.684a1.6,1.6,0,0,0-1.6,1.533v1.233a15.16,15.16,0,0,1-4.191,9.834l-.9.933a1.542,1.542,0,0,0-.264,1.668,2.026,2.026,0,0,0,.432.633l.9.966a14.062,14.062,0,0,1,2.9,4.467,14.411,14.411,0,0,1,1.3,5.2v1.134a1.252,1.252,0,0,0,0,.666,1.487,1.487,0,0,0,1.4.966h1.065A15.125,15.125,0,0,1,24.7,45.382l.93.9a1.483,1.483,0,0,0,1.019.4Z" transform="translate(13.329 6.651)"/></svg>