<svg version="1.2" baseProfile="tiny-ps" xmlns="http://www.w3.org/2000/svg" viewBox="0 0 24 24" width="24" height="24">
	<title>phone-svg</title>
	<style>
		tspan { white-space:pre }
		.shp0 { fill: #ef1016 } 
	</style>
	<g id="Layer">
		<g id="Layer">
			<path id="Layer" class="shp0" d="M16.37 20.19C15.98 20.19 15.58 20.17 15.19 20.12C14.8 20.07 14.42 20 14.04 19.9C13.65 19.81 13.28 19.69 12.91 19.55C12.55 19.4 12.19 19.24 11.84 19.05L11.41 18.82C10.67 18.42 9.97 17.97 9.3 17.47C8.62 16.97 7.99 16.42 7.4 15.83C6.81 15.24 6.26 14.6 5.76 13.93C5.26 13.26 4.81 12.55 4.41 11.82L4.17 11.39C3.98 11.04 3.81 10.68 3.67 10.31C3.52 9.94 3.4 9.56 3.3 9.18C3.2 8.79 3.13 8.4 3.08 8.01C3.03 7.61 3 7.22 3 6.82L3 6.18C3 6.06 3.01 5.93 3.04 5.81C3.06 5.68 3.1 5.56 3.15 5.45C3.19 5.33 3.25 5.22 3.32 5.12C3.39 5.01 3.47 4.91 3.56 4.83L5.18 3.21C5.25 3.13 5.35 3.08 5.45 3.04C5.56 3.01 5.67 2.99 5.77 3.01C5.88 3.02 5.99 3.06 6.08 3.12C6.17 3.18 6.24 3.26 6.3 3.35L8.45 7.04C8.51 7.13 8.54 7.23 8.56 7.33C8.58 7.44 8.59 7.54 8.57 7.65C8.56 7.75 8.53 7.85 8.48 7.95C8.44 8.04 8.37 8.13 8.3 8.2L6.5 10C6.46 10.04 6.43 10.08 6.41 10.12C6.39 10.17 6.37 10.22 6.36 10.27C6.36 10.32 6.36 10.37 6.37 10.42C6.37 10.47 6.39 10.52 6.41 10.56L6.75 11.19C7.05 11.75 7.38 12.28 7.76 12.78C8.13 13.28 8.55 13.76 8.99 14.2C9.43 14.64 9.91 15.05 10.41 15.43C10.92 15.8 11.45 16.14 12 16.44L12.63 16.78C12.68 16.81 12.72 16.82 12.77 16.83C12.82 16.84 12.88 16.84 12.93 16.83C12.98 16.82 13.02 16.81 13.07 16.79C13.12 16.76 13.16 16.73 13.19 16.7L14.99 14.9C15.07 14.82 15.15 14.76 15.25 14.71C15.34 14.67 15.44 14.64 15.54 14.62C15.65 14.61 15.75 14.61 15.86 14.63C15.96 14.65 16.06 14.69 16.15 14.74L19.84 16.89C19.93 16.95 20.01 17.02 20.07 17.12C20.13 17.21 20.17 17.31 20.18 17.42C20.2 17.53 20.19 17.64 20.15 17.74C20.12 17.85 20.06 17.94 19.98 18.02L18.36 19.63C18.28 19.72 18.18 19.8 18.07 19.87C17.97 19.94 17.86 20 17.74 20.05C17.63 20.1 17.51 20.13 17.38 20.16C17.26 20.18 17.13 20.2 17.01 20.2L16.37 20.19Z" />
		</g>
	</g>
</svg>