<svg xmlns="http://www.w3.org/2000/svg" xmlns:xlink="http://www.w3.org/1999/xlink" width="24" height="24" viewBox="0 0 24 24"><defs><style>.a{fill:none;stroke:#707070;}.b{clip-path:url(#a);}.c{fill:#fff;}</style><clipPath id="a"><rect class="a" width="24" height="24" transform="translate(1382 5657)"/></clipPath></defs><g class="b" transform="translate(-1382 -5657)"><g transform="translate(1385 5660)"><path class="c" d="M13.369,17.191a9.616,9.616,0,0,1-4.527-1.136l-.43-.239a17.189,17.189,0,0,1-7-7l-.239-.43A9.616,9.616,0,0,1,0,3.821v-.64A1.91,1.91,0,0,1,.563,1.826L2.177.212A.716.716,0,0,1,3.3.355L5.453,4.041A.955.955,0,0,1,5.3,5.2L3.5,7a.477.477,0,0,0-.086.563l.334.63A12.921,12.921,0,0,0,9,13.438l.63.344a.477.477,0,0,0,.563-.086l1.8-1.8a.955.955,0,0,1,1.156-.153l3.686,2.149a.716.716,0,0,1,.143,1.127l-1.614,1.614a1.91,1.91,0,0,1-1.356.563Z" transform="translate(0 0)"/></g></g></svg>