<svg xmlns="http://www.w3.org/2000/svg" width="24" height="24" viewBox="0 0 24 24"><defs><style>.a{fill:#fff;}</style></defs><path class="a" d="M8.282,20H7.617a1,1,0,0,1-.947-.681l-.51-1.54a6.761,6.761,0,0,0-2.63-3.2,10.85,10.85,0,0,1-2.4-2.4A7.321,7.321,0,0,1,0,8,8,8,0,0,1,16,8c0,3.763-1.819,5.207-3.577,6.6A7.016,7.016,0,0,0,9.74,17.78L9.23,19.32A1,1,0,0,1,8.282,20ZM8,2A6.007,6.007,0,0,0,2,8c0,2.833,1.245,3.789,2.821,5A9.176,9.176,0,0,1,8,16.73,9.262,9.262,0,0,1,11.18,13C12.756,11.789,14,10.832,14,8A6.007,6.007,0,0,0,8,2Zm0,8a2,2,0,1,1,2-2A2,2,0,0,1,8,10Z" transform="translate(4 2)"/></svg>