<svg xmlns="http://www.w3.org/2000/svg" width="30" height="30" viewBox="0 0 30 30"><defs><style>.a{fill:#ef1016;}</style></defs><path class="a" d="M15,30A15,15,0,1,1,30,15,15.017,15.017,0,0,1,15,30ZM15,3A12,12,0,1,0,27,15,12.014,12.014,0,0,0,15,3Zm3.316,16.863a.722.722,0,0,1-.525-.228L15,16.86l-2.79,2.774a.717.717,0,0,1-1.049,0l-.8-.794a.718.718,0,0,1,0-1.05L13.14,15l-2.774-2.79a.717.717,0,0,1,0-1.049l.8-.8a.717.717,0,0,1,1.049,0L15,13.14l2.79-2.774a.718.718,0,0,1,1.05,0l.794.8a.717.717,0,0,1,0,1.049L16.86,15l2.774,2.79a.718.718,0,0,1,0,1.05l-.794.794A.722.722,0,0,1,18.315,19.863Z"/></svg>