<svg xmlns="http://www.w3.org/2000/svg" width="18" height="18" viewBox="0 0 18 18"><defs><style>.a{fill:#ef1016;}</style></defs><path class="a" d="M12.6,13.5a.373.373,0,0,1-.267-.111l-3-3a2.012,2.012,0,0,1-.225-.271l-.562-.751a5.27,5.27,0,0,1-3.277,1.149H5.25a5.257,5.257,0,0,1-2.271-10A5.243,5.243,0,0,1,9.367,2,5.262,5.262,0,0,1,9.333,8.56l.75.518a1.854,1.854,0,0,1,.323.263l3,3a.375.375,0,0,1-.015.518l-.525.525A.375.375,0,0,1,12.6,13.5ZM5.268,1.5a3.756,3.756,0,1,0,3.75,3.755A3.757,3.757,0,0,0,5.268,1.5Z" transform="translate(2.251 2.25)"/></svg>