<svg xmlns="http://www.w3.org/2000/svg" width="20" height="20" viewBox="0 0 20 20"><defs><style>.a{fill:#ef1016;}</style></defs><path class="a" d="M13.334,16.667A1.667,1.667,0,1,1,15,15,1.668,1.668,0,0,1,13.334,16.667ZM5,16.667A1.667,1.667,0,1,1,6.667,15,1.669,1.669,0,0,1,5,16.667ZM4.152,12.5h0a.637.637,0,0,1-.544-.308l-.183-.317a.641.641,0,0,1,0-.592L4.975,8.2a1.819,1.819,0,0,1-.225-.292L1.184,1.667H.417A.417.417,0,0,1,0,1.25V.417A.417.417,0,0,1,.417,0H1.19A1.671,1.671,0,0,1,2.633.833l.467.833H16.25a.417.417,0,0,1,.416.417V2.5a3.979,3.979,0,0,1-.542,1.967L14.167,7.908a2.457,2.457,0,0,1-2.092,1.259H6.884a2.248,2.248,0,0,1-.533-.075l-.833,1.742h9.066A.417.417,0,0,1,15,11.25v.833a.417.417,0,0,1-.417.417H4.152ZM4.058,3.333h0L6.2,7.083a.835.835,0,0,0,.716.417h5.192a.836.836,0,0,0,.626-.417L14.7,3.642a2.011,2.011,0,0,0,.081-.195c.014-.039.029-.077.044-.114H4.058Z" transform="translate(1.667 1.667)"/></svg>