<svg xmlns="http://www.w3.org/2000/svg" width="24" height="24" viewBox="0 0 24 24"><defs><style>.a{fill:#fff;}</style></defs><path class="a" d="M16,20a2,2,0,1,1,2-2A2,2,0,0,1,16,20ZM6,20a2,2,0,1,1,2-2A2,2,0,0,1,6,20ZM4.983,15h0a.764.764,0,0,1-.653-.37l-.22-.381a.769.769,0,0,1,0-.71L5.97,9.84a2.183,2.183,0,0,1-.27-.35L1.42,2H.5A.5.5,0,0,1,0,1.5V.5A.5.5,0,0,1,.5,0h.927A2,2,0,0,1,3.16,1l.56,1H19.5a.5.5,0,0,1,.5.5V3a4.774,4.774,0,0,1-.65,2.361L17,9.49A2.948,2.948,0,0,1,14.49,11H8.26a2.7,2.7,0,0,1-.64-.09L6.62,13H17.5a.5.5,0,0,1,.5.5v1a.5.5,0,0,1-.5.5H4.983ZM4.87,4h0L7.44,8.5A1,1,0,0,0,8.3,9h6.23a1,1,0,0,0,.751-.5L17.64,4.37a2.414,2.414,0,0,0,.1-.234c.017-.046.035-.092.053-.137H4.87Z" transform="translate(2 2)"/></svg>