<svg xmlns="http://www.w3.org/2000/svg" width="18" height="18" viewBox="0 0 18 18"><defs><style>.a{fill:gold;}</style></defs><path class="a" d="M.151,5.891a.367.367,0,0,1-.135-.4L.076,5.3a.367.367,0,0,1,.33-.262l4.788-.382L7.029.241A.382.382,0,0,1,7.412,0h.195a.367.367,0,0,1,.352.24L9.8,4.654l4.788.382a.367.367,0,0,1,.33.262l.06.187a.367.367,0,0,1-.112.4l-3.612,3.1,1.109,4.653a.382.382,0,0,1-.142.4l-.217.12a.375.375,0,0,1-.42,0L7.509,11.69l-4.1,2.5a.375.375,0,0,1-.42,0l-.165-.112a.382.382,0,0,1-.142-.4L3.763,8.993Z" transform="translate(1.5 1.5)"/></svg>