<svg xmlns="http://www.w3.org/2000/svg" width="18" height="18" viewBox="0 0 18 18"><defs><style>.a{fill:gold;}</style></defs><path class="a" d="M11.795,14.25h-.016a.361.361,0,0,1-.188-.053L7.5,11.7,3.431,14.2a.357.357,0,0,1-.187.053H3.228a.349.349,0,0,1-.215-.075l-.187-.113a.381.381,0,0,1-.142-.4L3.76,9,.133,5.895A.369.369,0,0,1,.021,5.49L.1,5.3A.366.366,0,0,1,.432,5.04l4.78-.383L7.043.24A.38.38,0,0,1,7.4,0H7.6a.368.368,0,0,1,.344.24L9.811,4.658l4.78.383a.368.368,0,0,1,.329.263l.06.187a.367.367,0,0,1-.1.4L11.24,9l1.077,4.666a.382.382,0,0,1-.142.4l-.165.113A.349.349,0,0,1,11.795,14.25ZM7.5,10.163h0l3.082,1.882-.838-3.51,2.745-2.348L8.891,5.9,7.5,2.558,6.109,5.9l-3.6.285L5.256,8.535l-.845,3.51L7.5,10.163Z" transform="translate(1.5 1.5)"/></svg>